<svg width="48" height="41" viewBox="0 0 48 41" fill="none" xmlns="http://www.w3.org/2000/svg">
<path d="M34.7999 12.5C34.7999 17.2578 29.9627 22 22.7999 22C15.6371 22 10.7999 17.2578 10.7999 12.5C10.7999 7.74221 15.6371 3 22.7999 3C29.9627 3 34.7999 7.74221 34.7999 12.5Z" stroke="black" stroke-width="6"/>
<path d="M3 39L5.63727 34.3925C7.29889 31.4896 9.77996 29.1413 12.7698 27.6418L14.4399 26.8042C16.8053 25.6178 19.415 25 22.0613 25H25.2221C27.9949 25 30.7256 25.6782 33.1761 26.9756L35.0848 27.9861C37.5107 29.2704 39.5895 31.123 41.1436 33.3855L45 39" stroke="black" stroke-width="6"/>
</svg>
