<svg width="199" height="172" viewBox="0 0 199 172" fill="none" xmlns="http://www.w3.org/2000/svg">
<g clip-path="url(#clip0_378_2)">
<rect x="-1" width="200" height="172" fill="#AFD275"/>
<path d="M37.9688 63.155C39.3454 63.645 40.3954 64.38 41.1188 65.36C41.8421 66.3167 42.2038 67.495 42.2038 68.895C42.2038 71.0883 41.3288 72.8267 39.5788 74.11C37.8521 75.37 35.4021 76 32.2288 76H19.1388V51.5H31.5638C34.5971 51.5 36.9421 52.06 38.5988 53.18C40.2788 54.3 41.1188 55.875 41.1188 57.905C41.1188 59.0717 40.8388 60.0983 40.2788 60.985C39.7421 61.8717 38.9721 62.595 37.9688 63.155ZM27.2587 60.915H30.7588C32.1121 60.915 32.7888 60.32 32.7888 59.13C32.7888 57.8933 32.1121 57.275 30.7588 57.275H27.2587V60.915ZM31.8438 70.225C33.1971 70.225 33.8738 69.5717 33.8738 68.265C33.8738 67.005 33.1971 66.375 31.8438 66.375H27.2587V70.225H31.8438ZM64.9595 66.41C64.9595 66.5267 64.9245 67.145 64.8545 68.265H51.5545C51.8345 68.9883 52.3012 69.5483 52.9545 69.945C53.6078 70.3183 54.4245 70.505 55.4045 70.505C56.2445 70.505 56.9445 70.4 57.5045 70.19C58.0878 69.98 58.7178 69.6183 59.3945 69.105L63.5245 73.27C61.6578 75.3233 58.8695 76.35 55.1595 76.35C52.8495 76.35 50.8195 75.93 49.0695 75.09C47.3195 74.2267 45.9662 73.0367 45.0095 71.52C44.0528 70.0033 43.5745 68.3 43.5745 66.41C43.5745 64.4967 44.0412 62.7933 44.9745 61.3C45.9312 59.7833 47.2262 58.605 48.8595 57.765C50.5162 56.925 52.3712 56.505 54.4245 56.505C56.3612 56.505 58.1228 56.89 59.7095 57.66C61.3195 58.43 62.5912 59.5617 63.5245 61.055C64.4812 62.5483 64.9595 64.3333 64.9595 66.41ZM54.4945 61.895C53.6778 61.895 53.0012 62.1167 52.4645 62.56C51.9278 63.0033 51.5778 63.6333 51.4145 64.45H57.5745C57.4112 63.6567 57.0612 63.0383 56.5245 62.595C55.9878 62.1283 55.3112 61.895 54.4945 61.895ZM80.5782 56.505C82.2582 56.505 83.7982 56.9133 85.1982 57.73C86.6216 58.5233 87.7416 59.6783 88.5582 61.195C89.3982 62.7117 89.8182 64.4617 89.8182 66.445C89.8182 68.4283 89.3982 70.1783 88.5582 71.695C87.7416 73.1883 86.6216 74.3433 85.1982 75.16C83.7982 75.9533 82.2582 76.35 80.5782 76.35C78.4549 76.35 76.8332 75.8017 75.7132 74.705V82.79H67.8032V56.855H75.3282V58.43C76.4716 57.1467 78.2216 56.505 80.5782 56.505ZM78.6882 70.19C79.5982 70.19 80.3449 69.8633 80.9282 69.21C81.5116 68.5567 81.8032 67.635 81.8032 66.445C81.8032 65.255 81.5116 64.3333 80.9282 63.68C80.3449 63.0033 79.5982 62.665 78.6882 62.665C77.7782 62.665 77.0316 63.0033 76.4482 63.68C75.8649 64.3333 75.5732 65.255 75.5732 66.445C75.5732 67.635 75.8649 68.5567 76.4482 69.21C77.0316 69.8633 77.7782 70.19 78.6882 70.19ZM92.3784 56.855H100.253V63.575H105.643V56.855H113.518V76H105.643V69.77H100.253V76H92.3784V56.855ZM129.057 62.63C131.6 62.63 133.502 63.19 134.762 64.31C136.045 65.4067 136.687 66.9933 136.687 69.07C136.687 71.24 135.94 72.9433 134.447 74.18C132.954 75.3933 130.83 76 128.077 76H117.227V56.855H125.102V62.63H129.057ZM137.842 56.855H145.717V76H137.842V56.855ZM127.272 70.68C128.415 70.68 128.987 70.0967 128.987 68.93C128.987 67.81 128.415 67.25 127.272 67.25H125.102V70.68H127.272ZM169.549 66.41C169.549 66.5267 169.514 67.145 169.444 68.265H156.144C156.424 68.9883 156.891 69.5483 157.544 69.945C158.198 70.3183 159.014 70.505 159.994 70.505C160.834 70.505 161.534 70.4 162.094 70.19C162.678 69.98 163.308 69.6183 163.984 69.105L168.114 73.27C166.248 75.3233 163.459 76.35 159.749 76.35C157.439 76.35 155.409 75.93 153.659 75.09C151.909 74.2267 150.556 73.0367 149.599 71.52C148.643 70.0033 148.164 68.3 148.164 66.41C148.164 64.4967 148.631 62.7933 149.564 61.3C150.521 59.7833 151.816 58.605 153.449 57.765C155.106 56.925 156.961 56.505 159.014 56.505C160.951 56.505 162.713 56.89 164.299 57.66C165.909 58.43 167.181 59.5617 168.114 61.055C169.071 62.5483 169.549 64.3333 169.549 66.41ZM159.084 61.895C158.268 61.895 157.591 62.1167 157.054 62.56C156.518 63.0033 156.168 63.6333 156.004 64.45H162.164C162.001 63.6567 161.651 63.0383 161.114 62.595C160.578 62.1283 159.901 61.895 159.084 61.895ZM55.9367 112.805V122.78H48.6217V119H38.0517V122.78H30.7367V112.805H31.2967C32.4167 112.805 33.1984 112.28 33.6417 111.23C34.0851 110.157 34.3417 108.617 34.4117 106.61L34.6567 99.855H53.3817V112.805H55.9367ZM41.5167 107.205C41.4701 108.675 41.3651 109.842 41.2017 110.705C41.0617 111.545 40.7701 112.245 40.3267 112.805H45.5067V106.015H41.5517L41.5167 107.205ZM71.025 99.505C72.705 99.505 74.245 99.9133 75.645 100.73C77.0684 101.523 78.1884 102.678 79.005 104.195C79.845 105.712 80.265 107.462 80.265 109.445C80.265 111.428 79.845 113.178 79.005 114.695C78.1884 116.188 77.0684 117.343 75.645 118.16C74.245 118.953 72.705 119.35 71.025 119.35C68.9017 119.35 67.28 118.802 66.16 117.705V125.79H58.25V99.855H65.775V101.43C66.9184 100.147 68.6684 99.505 71.025 99.505ZM69.135 113.19C70.045 113.19 70.7917 112.863 71.375 112.21C71.9584 111.557 72.25 110.635 72.25 109.445C72.25 108.255 71.9584 107.333 71.375 106.68C70.7917 106.003 70.045 105.665 69.135 105.665C68.225 105.665 67.4784 106.003 66.895 106.68C66.3117 107.333 66.02 108.255 66.02 109.445C66.02 110.635 66.3117 111.557 66.895 112.21C67.4784 112.863 68.225 113.19 69.135 113.19ZM103.943 99.855L96.0675 119.385C95.0642 121.882 93.8159 123.632 92.3225 124.635C90.8292 125.638 88.9975 126.14 86.8275 126.14C85.7542 126.14 84.6692 125.977 83.5725 125.65C82.4992 125.347 81.6475 124.938 81.0175 124.425L83.6425 119C84.0392 119.303 84.4825 119.548 84.9725 119.735C85.4859 119.922 85.9759 120.015 86.4425 120.015C87.3059 120.015 87.9592 119.758 88.4025 119.245L80.3525 99.855H88.4725L92.4275 110.11L96.4525 99.855H103.943ZM119.98 109.06C121.006 109.433 121.8 109.982 122.36 110.705C122.943 111.405 123.235 112.233 123.235 113.19C123.235 114.52 122.768 115.663 121.835 116.62C120.901 117.553 119.641 118.265 118.055 118.755C116.468 119.222 114.706 119.455 112.77 119.455C109.48 119.455 106.493 118.965 103.81 117.985L105.805 112.77C107.788 113.493 110.04 113.855 112.56 113.855C113.4 113.855 114.065 113.75 114.555 113.54C115.045 113.33 115.29 113.003 115.29 112.56C115.29 112.187 115.173 111.93 114.94 111.79C114.73 111.627 114.356 111.545 113.82 111.545H109.445V107.135H113.085C113.668 107.135 114.088 107.053 114.345 106.89C114.625 106.727 114.765 106.458 114.765 106.085C114.765 105.712 114.578 105.432 114.205 105.245C113.831 105.058 113.19 104.965 112.28 104.965C110.53 104.965 108.488 105.362 106.155 106.155L104.37 101.15C107.333 100.007 110.168 99.435 112.875 99.435C115.745 99.435 118.101 99.9133 119.945 100.87C121.788 101.803 122.71 103.168 122.71 104.965C122.71 105.805 122.465 106.587 121.975 107.31C121.485 108.033 120.82 108.617 119.98 109.06ZM137.865 105.63C140.432 105.63 142.403 106.19 143.78 107.31C145.157 108.43 145.845 110.017 145.845 112.07C145.845 114.217 145.04 115.908 143.43 117.145C141.843 118.382 139.662 119 136.885 119H125.755V99.855H133.63V105.63H137.865ZM136.08 113.68C137.223 113.68 137.795 113.097 137.795 111.93C137.795 110.81 137.223 110.25 136.08 110.25H133.63V113.68H136.08ZM165.848 99.855V119H158.848V114.135H156.923L153.808 119H145.443L149.573 113.015C148.36 112.432 147.426 111.65 146.773 110.67C146.143 109.69 145.828 108.547 145.828 107.24C145.828 104.93 146.715 103.122 148.488 101.815C150.261 100.508 152.688 99.855 155.768 99.855H165.848ZM155.943 105.98C154.59 105.98 153.913 106.493 153.913 107.52C153.913 108.103 154.076 108.535 154.403 108.815C154.753 109.072 155.266 109.2 155.943 109.2H158.848V105.98H155.943Z" fill="white"/>
</g>
<defs>
<clipPath id="clip0_378_2">
<rect width="199" height="172" fill="white"/>
</clipPath>
</defs>
</svg>
